HIERARCHY
ROOT Hips
{
	OFFSET 0.00000 0.00000 0.00000
	CHANNELS 6 Xposition Yposition Zposition Zrotation Yrotation Xrotation 
	JOINT LHipJoint
	{
		OFFSET 0 0 0
		CHANNELS 3 Zrotation Yrotation Xrotation
		JOINT LeftHip
		{
			OFFSET 1.81638 -1.86202 0.89635
			CHANNELS 3 Zrotation Yrotation Xrotation
			JOINT LeftKnee
			{
				OFFSET 2.63464 -7.23861 0.00000
				CHANNELS 3 Zrotation Yrotation Xrotation
				JOINT LeftAnkle
				{
					OFFSET 2.45871 -6.75336 0.00000
					CHANNELS 3 Zrotation Yrotation Xrotation
					JOINT LeftToe
					{
						OFFSET 0.34235 -0.94059 2.20020
						CHANNELS 3 Zrotation Yrotation Xrotation
						End Site
						{
							OFFSET 0.00000 -0.00000 1.18611
						}
					}
				}
			}
		}
	}
	JOINT RHipJoint
	{
		OFFSET 0 0 0
		CHANNELS 3 Zrotation Yrotation Xrotation
		JOINT RightHip
		{
			OFFSET -1.84405 -1.86203 0.89635
			CHANNELS 3 Zrotation Yrotation Xrotation
			JOINT RightKnee
			{
				OFFSET -2.71067 -7.44751 0.00000
				CHANNELS 3 Zrotation Yrotation Xrotation
				JOINT RightAnkle
				{
					OFFSET -2.47159 -6.79060 0.00000
					CHANNELS 3 Zrotation Yrotation Xrotation
					JOINT RightToe
					{
						OFFSET -0.26223 -0.72048 2.36007
						CHANNELS 3 Zrotation Yrotation Xrotation
						End Site
						{
							OFFSET -0.00000 -0.00000 1.23343
						}
					}
				}
			}
		}
	}
	JOINT lowerback
	{
		OFFSET 0 0 0
		CHANNELS 3 Zrotation Yrotation Xrotation
		JOINT Chest
		{
			OFFSET 0.02089 1.99248 -0.22512
			CHANNELS 3 Zrotation Yrotation Xrotation
			JOINT Chest2
			{
				OFFSET 0.01476 2.01356 -0.03079
				CHANNELS 3 Zrotation Yrotation Xrotation
				JOINT lowerneck
				{
					OFFSET 0 0 0
					CHANNELS 3 Zrotation Yrotation Xrotation
					JOINT Neck
					{
						OFFSET 0.04846 1.65098 0.06663
						CHANNELS 3 Zrotation Yrotation Xrotation
						JOINT Head
						{
							OFFSET -0.06061 1.60634 -0.07565
							CHANNELS 3 Zrotation Yrotation Xrotation
							End Site
							{
								OFFSET -0.02954 1.73562 -0.03642
							}
						}
					}
				}
				JOINT LeftCollar
				{
					OFFSET 0 0 0
					CHANNELS 3 Zrotation Yrotation Xrotation
					JOINT LeftShoulder
					{
						OFFSET 3.45234 1.47051 -0.06993
CHANNELS 3 Zrotation Xrotation Yrotation
						JOINT LeftElbow
						{
OFFSET 0 -5.493130 0.000000
CHANNELS 3 Zrotation Xrotation Yrotation
							JOINT LeftWrist
							{
OFFSET 0 -3.290370 0.000000
CHANNELS 3 Zrotation Xrotation Yrotation
								JOINT lhand
								{
									OFFSET 0 0 0
CHANNELS 3 Zrotation Xrotation Yrotation
									JOINT LFingers
									{
OFFSET 0 -0.729660 0.000000
CHANNELS 3 Zrotation Xrotation Yrotation
										End Site
										{
OFFSET 0 -0.588270 0.000000
										}
									}
								}
								JOINT LThumb
								{
OFFSET 0 0.000000 0.000000
CHANNELS 3 Zrotation Xrotation Yrotation
									End Site
									{
OFFSET 0 -0.597250 0.597250
									}
								}
							}
						}
					}
				}
				JOINT RightCollar
				{
					OFFSET 0 0 0
					CHANNELS 3 Zrotation Yrotation Xrotation
					JOINT RightShoulder
					{
						OFFSET -3.41935 1.44327 0.20453
CHANNELS 3 Zrotation Xrotation Yrotation
						JOINT RightElbow
						{
OFFSET 0 -5.236840 0.000000
CHANNELS 3 Zrotation Xrotation Yrotation
							JOINT RightWrist
							{
OFFSET 0 -3.382510 0.000000
CHANNELS 3 Zrotation Xrotation Yrotation
								JOINT rhand
								{
									OFFSET 0 0 0
CHANNELS 3 Zrotation Xrotation Yrotation
									JOINT RFingers
									{
OFFSET 0 -0.691450 0.000000
CHANNELS 3 Zrotation Xrotation Yrotation
										End Site
										{
OFFSET 0 -0.557470 0.000000
										}
									}
								}
								JOINT RThumb
								{
OFFSET 0 0.000000 0.000000
CHANNELS 3 Zrotation Xrotation Yrotation
									End Site
									{
OFFSET 0 -0.565980 0.565980
									}
								}
							}
						}
					}
				}
			}
		}
	}
}
MOTION
Frames: 4
Frame Time: 0.008333333333333333
2.452781 17.603973 -0.917438 511.078903 101.558144 518.602840 0.000000 0.000000 0.000000 -12.926595 -4.819097 -28.726981 4.534537 12.839040 38.769867 1.117044 -3.300517 -19.145060 0.017851 -0.862032 -2.369254 0.000000 0.000000 0.000000 23.852682 4.180017 -10.207422 -8.783050 -16.658946 55.325736 0.126379 6.691639 -0.000455 -1.038024 6.479716 -18.182877 -2.567438 2.115966 19.367875 -1.460948 2.548985 6.249601 -0.678662 1.398436 -4.118102 8.063963 2.513859 -3.143460 -3.590618 3.115451 2.454097 -2.484773 1.576396 1.530637 0.000000 0.000000 0.000000 13.568967 19.339366 -19.208505 19.591761 -30.147308 5.324767 -4.475761 8.812019 -7.684044 0.000000 0.000000 0.000000 -7.125000 0.000000 0.000000 -25.927670 36.438231 -5.964052 0.000000 0.000000 0.000000 -14.552237 15.411290 41.673493 -35.573441 -45.214016 -15.220066 -14.039028 -6.166959 14.882577 0.000000 0.000000 0.000000 7.125000 0.000000 0.000000 12.537888 44.924177 0.023618
2.704396 17.558046 -0.901204 512.803057 101.202311 519.935608 0.000000 0.000000 0.000000 -13.672683 -4.499299 -27.879546 4.719380 13.060461 39.595563 1.265281 -3.767767 -20.351620 0.017659 -0.858041 -2.358377 0.000000 0.000000 0.000000 23.071939 4.192459 -11.703913 -9.791599 -17.288670 58.786211 0.081378 5.906996 -1.102476 -1.050644 6.517921 -18.294823 -3.194777 2.010954 19.478377 -1.699262 2.292862 6.335830 -0.522015 1.277281 -4.090737 7.939565 2.496337 -3.255989 -3.271493 3.079958 2.576387 -2.354869 1.564495 1.577165 0.000000 0.000000 0.000000 14.444022 17.615830 -19.484812 19.642744 -30.209551 5.350447 -3.602943 9.776033 -7.236835 0.000000 0.000000 0.000000 -7.125000 0.000000 0.000000 -25.111630 36.096540 -5.973974 0.000000 0.000000 0.000000 -14.256136 15.447816 41.498554 -34.228763 -44.252050 -14.272898 -14.126636 -5.035106 15.463527 0.000000 0.000000 0.000000 7.125000 0.000000 0.000000 12.625539 45.514562 -0.162981
2.953550 17.516141 -0.886664 514.005088 100.865608 520.802641 0.000000 0.000000 0.000000 -14.276011 -4.173995 -27.012987 4.877484 13.244387 40.290469 1.420644 -4.227973 -21.544724 0.019196 -0.893530 -2.455861 0.000000 0.000000 0.000000 22.457698 4.179596 -13.253931 -10.702222 -17.784263 61.808259 0.026967 5.155551 -2.636875 -1.027540 6.448012 -18.089985 -3.625720 1.895314 19.592446 -1.895360 2.059218 6.404488 -0.436638 1.166870 -4.076464 7.799080 2.457828 -3.408049 -2.975821 3.014384 2.736674 -2.231123 1.537744 1.641807 0.000000 0.000000 0.000000 15.281125 15.795019 -19.674468 19.796147 -30.395948 5.427886 -2.421773 10.580856 -6.849028 0.000000 0.000000 0.000000 -7.125000 0.000000 0.000000 -24.077078 35.824792 -5.861523 0.000000 0.000000 0.000000 -13.956572 15.491002 41.254183 -32.883650 -43.238356 -13.343020 -14.219033 -3.720032 15.993225 0.000000 0.000000 0.000000 7.125000 0.000000 0.000000 12.698825 46.054361 -0.335958
3.201022 17.479973 -0.874825 514.767788 100.547167 521.279975 0.000000 0.000000 0.000000 -14.763165 -3.870823 -26.111123 5.007186 13.391691 40.853329 1.574000 -4.648636 -22.665522 0.020500 -0.924408 -2.540879 0.000000 0.000000 0.000000 21.977268 4.191884 -14.860687 -11.491471 -18.164694 64.364498 -0.037955 4.526869 -4.387649 -0.959495 6.236266 -17.471807 -3.901837 1.769951 19.713805 -2.043704 1.840548 6.451284 -0.391887 1.063333 -4.085581 7.656647 2.411039 -3.572704 -2.726988 2.938114 2.914154 -2.123606 1.505259 1.715214 0.000000 0.000000 0.000000 16.037981 13.919817 -19.803743 20.056264 -30.709774 5.560233 -0.890572 11.119068 -6.529983 0.000000 0.000000 0.000000 -7.125000 0.000000 0.000000 -22.789011 35.632618 -5.617168 0.000000 0.000000 0.000000 -13.694470 15.566410 40.962254 -31.589085 -42.213588 -12.465040 -14.251124 -2.287416 16.436789 0.000000 0.000000 0.000000 7.125000 0.000000 0.000000 12.805136 46.500617 -0.482177
